<?xml version="1.0" encoding="UTF-8" standalone="no"?>
<!-- Created with Inkscape (http://www.inkscape.org/) -->

<svg
   xmlns:dc="http://purl.org/dc/elements/1.1/"
   xmlns:cc="http://creativecommons.org/ns#"
   xmlns:rdf="http://www.w3.org/1999/02/22-rdf-syntax-ns#"
   xmlns:svg="http://www.w3.org/2000/svg"
   xmlns="http://www.w3.org/2000/svg"
   xmlns:sodipodi="http://sodipodi.sourceforge.net/DTD/sodipodi-0.dtd"
   xmlns:inkscape="http://www.inkscape.org/namespaces/inkscape"
   width="240"
   height="240"
   viewBox="0 0 63.499998 63.500004"
   version="1.1"
   id="svg8"
   inkscape:version="0.92.3 (2405546, 2018-03-11)"
   sodipodi:docname="id.svg">
  <defs
     id="defs2" />
  <sodipodi:namedview
     id="base"
     pagecolor="#ffffff"
     bordercolor="#666666"
     borderopacity="1.0"
     inkscape:pageopacity="0.0"
     inkscape:pageshadow="2"
     inkscape:zoom="0.53237464"
     inkscape:cx="80.071259"
     inkscape:cy="262.88362"
     inkscape:document-units="px"
     inkscape:current-layer="layer1"
     showgrid="false"
     units="px"
     inkscape:window-width="1366"
     inkscape:window-height="743"
     inkscape:window-x="0"
     inkscape:window-y="457"
     inkscape:window-maximized="1" />
  <metadata
     id="metadata5">
    <rdf:RDF>
      <cc:Work
         rdf:about="">
        <dc:format>image/svg+xml</dc:format>
        <dc:type
           rdf:resource="http://purl.org/dc/dcmitype/StillImage" />
        <dc:title></dc:title>
      </cc:Work>
    </rdf:RDF>
  </metadata>
  <g
     inkscape:label="Layer 1"
     inkscape:groupmode="layer"
     id="layer1"
     transform="translate(0,-233.49998)">
    <rect
       style="opacity:1;fill:#ffffff;fill-opacity:1;stroke:none;stroke-width:0.5291667;stroke-miterlimit:4;stroke-dasharray:none;stroke-opacity:1"
       id="rect5177"
       width="63.5"
       height="63.5"
       x="4.9999994e-07"
       y="233.49998" />
    <path
       d="m 34.784621,247.57103 c 3.688324,-0.0255 8.519921,-0.31919 12.015272,0.62868 0,0 2.670059,0.99399 2.670059,0.99399 1.603252,0.68572 3.242913,1.7234 4.45536,2.9844 2.58268,2.68462 3.877657,6.13628 4.171363,9.81004 0,0 0.111659,1.4564 0.111659,1.4564 0,0 0,3.39826 0,3.39826 -0.02913,2.40912 -0.837431,5.76976 -1.979484,7.88881 -0.566784,1.05225 -0.870201,1.40058 -1.605679,2.30597 -0.338613,0.41628 -0.501243,0.6845 -0.91025,1.07166 -2.405481,2.27805 -5.506392,3.50628 -8.733524,4.03543 0,0 -2.063228,0.23788 -2.063228,0.23788 0,0 -1.456397,0 -1.456397,0 0,0 -1.456396,0.11652 -1.456396,0.11652 0,0 -8.859747,0 -8.859747,0 -1.594754,0 -3.847315,0.1068 -5.340121,-0.36775 -2.366645,-0.75247 -3.515985,-2.97954 -3.519626,-5.33648 0,0 0,-24.15191 0,-24.15191 0.03398,-2.87517 1.208809,-4.5658 4.126458,-5.0719 0,0 8.374281,0 8.374281,0 z m 7.767449,23.77446 c 2.485583,-1.88118 2.702831,-4.55488 2.670061,-7.41548 -0.02426,-2.05716 -0.865343,-4.23084 -2.548695,-5.4712 -2.23921,-1.64816 -5.145935,-1.32532 -7.767449,-1.32532 0,0 0,15.65626 0,15.65626 2.824196,0 5.229678,0.38473 7.646083,-1.44426 z m -24.151912,-2.92493 c 0,0 -0.121367,2.06323 -0.121367,2.06323 0,0 0,3.88372 0,3.88372 0,2.67371 0.348322,5.03914 -1.719762,7.1497 -1.524361,1.55592 -3.689538,1.49038 -5.683588,1.46732 -3.0693561,-0.0364 -5.4566331,-2.3897 -5.4614881,-5.46149 0,0 0,-8.85974 0,-8.85974 0,0 -0.116511,-1.4564 -0.116511,-1.4564 0,0 0,-1.57777 0,-1.57777 -0.0049,-0.25486 -0.0352,-0.68086 0.115298,-0.89204 0.156563,-0.21846 0.603191,-0.36774 0.850778,-0.46726 0,0 1.941863,-0.74519 1.941863,-0.74519 0,0 2.9127931,-1.14812 2.9127931,-1.14812 0,0 3.519625,-1.38601 3.519625,-1.38601 0.878693,-0.37138 2.924931,-1.27798 3.762359,-1.42969 0,0 0,8.85974 0,8.85974 z"
       id="Selection #1"
       inkscape:connector-curvature="0"
       style="fill:#0665b1;fill-opacity:1;stroke:none;stroke-width:0.26458332" />
    <path
       d="m 5.2918109,255.39942 c 0,-2.40912 -0.05219,-4.57915 1.831418,-6.42028 1.452756,-1.41878 3.4419521,-1.49038 5.3291991,-1.46854 3.137321,0.0376 5.78675,2.21009 5.825587,5.46149 0,0 0,1.94186 0,1.94186 0,0.25002 0.03156,0.68208 -0.120153,0.88598 -0.14928,0.20146 -0.615327,0.35439 -0.850778,0.44299 0,0 -2.063229,0.79495 -2.063229,0.79495 0,0 -9.9520441,3.9444 -9.9520441,3.9444 0,0 0,-5.58285 0,-5.58285 z"
       id="Selection #2"
       inkscape:connector-curvature="0"
       style="opacity:1;fill:#cd6231;fill-opacity:1;stroke:none;stroke-width:0.26458332" />
  </g>
</svg>
