<?xml version="1.0" encoding="UTF-8" standalone="no"?>
<!-- Created with Inkscape (http://www.inkscape.org/) -->

<svg
   xmlns:dc="http://purl.org/dc/elements/1.1/"
   xmlns:cc="http://creativecommons.org/ns#"
   xmlns:rdf="http://www.w3.org/1999/02/22-rdf-syntax-ns#"
   xmlns:svg="http://www.w3.org/2000/svg"
   xmlns="http://www.w3.org/2000/svg"
   xmlns:sodipodi="http://sodipodi.sourceforge.net/DTD/sodipodi-0.dtd"
   xmlns:inkscape="http://www.inkscape.org/namespaces/inkscape"
   width="240"
   height="240"
   viewBox="0 0 63.499998 63.500004"
   version="1.1"
   id="svg8"
   inkscape:version="0.92.3 (2405546, 2018-03-11)"
   sodipodi:docname="smartid.svg">
  <defs
     id="defs2" />
  <sodipodi:namedview
     id="base"
     pagecolor="#ffffff"
     bordercolor="#666666"
     borderopacity="1.0"
     inkscape:pageopacity="0.0"
     inkscape:pageshadow="2"
     inkscape:zoom="1.0647493"
     inkscape:cx="9.7390823"
     inkscape:cy="-96.790418"
     inkscape:document-units="px"
     inkscape:current-layer="layer1"
     showgrid="false"
     units="px"
     inkscape:window-width="1366"
     inkscape:window-height="743"
     inkscape:window-x="0"
     inkscape:window-y="457"
     inkscape:window-maximized="1" />
  <metadata
     id="metadata5">
    <rdf:RDF>
      <cc:Work
         rdf:about="">
        <dc:format>image/svg+xml</dc:format>
        <dc:type
           rdf:resource="http://purl.org/dc/dcmitype/StillImage" />
        <dc:title />
      </cc:Work>
    </rdf:RDF>
  </metadata>
  <g
     inkscape:label="Layer 1"
     inkscape:groupmode="layer"
     id="layer1"
     transform="translate(0,-233.49998)">
    <rect
       style="opacity:1;fill:#ffffff;fill-opacity:1;stroke:none;stroke-width:0.5291667;stroke-miterlimit:4;stroke-dasharray:none;stroke-opacity:1"
       id="rect5177"
       width="63.5"
       height="63.5"
       x="4.9999994e-07"
       y="233.49998" />
    <path
       d="m 28.999247,255.77407 c 0,0 0,17.05386 0,17.05386 -0.001,0.36212 0.02842,0.73163 -0.183107,1.04428 -0.469342,0.70636 -1.564826,0.68741 -2.038378,0 -0.224148,-0.3295 -0.19784,-0.66848 -0.198892,-1.04428 0,0 0,-26.73876 0,-26.73876 9.6e-4,-0.45898 -0.02736,-0.85269 0.294655,-1.22745 0.286235,-0.33266 0.668233,-0.37687 1.073384,-0.45687 0.797673,-0.15792 1.82265,-0.31477 2.630846,-0.31581 1.860533,-0.003 2.854992,-0.059 4.735522,0.2558 3.783156,0.63584 7.398988,2.32964 10.312911,4.82877 0,0 1.784768,1.75802 1.784768,1.75802 1.142838,1.19482 2.259364,2.85493 3.032838,4.31609 3.25804,6.15202 3.278034,13.36412 0.170473,19.58034 -1.232287,2.46439 -2.849726,4.46663 -4.882843,6.30888 -0.671395,0.60741 -1.758457,1.71591 -2.733977,1.25587 -0.672444,-0.31581 -0.830292,-1.17482 -0.450401,-1.7738 0.194683,-0.30739 0.684023,-0.679 0.974469,-0.92218 3.479027,-2.91705 5.657365,-6.52994 6.545545,-10.97446 0,0 0.294654,-1.68433 0.294654,-1.68433 0,0 0,-1.05271 0,-1.05271 0.0526,-0.3716 0.118913,-0.54109 0.09575,-0.94745 -0.0926,-1.63906 -0.266233,-3.36865 -0.748207,-4.9477 -1.842644,-6.02781 -6.523445,-10.92605 -12.60701,-12.73354 -2.536136,-0.75375 -3.846296,-0.74532 -6.419263,-0.74112 0,0 -1.578506,0.10528 -1.578506,0.10528 -0.220991,1.67592 -0.105234,7.01629 -0.105234,9.05327 z m -8.244016,-5.59829 c 0,0 -2.235166,1.94331 -2.235166,1.94331 -1.581664,1.60747 -2.859203,3.40234 -3.819987,5.44458 -3.302237,7.0205 -1.67427,15.39163 3.775789,20.8436 0.923952,0.92426 2.146769,1.99172 3.262247,2.67282 3.350645,2.04541 6.713916,2.95179 10.628615,2.90652 0.465134,-0.006 1.747933,-0.0368 1.997336,-0.44529 0.128389,-0.21054 0.107341,-0.57478 0.107341,-0.81795 0,0 0,-15.89588 0,-15.89588 0.0012,-0.36528 -0.0284,-0.72847 0.183105,-1.04744 0.469346,-0.71373 1.58903,-0.69584 2.054164,0 0.21152,0.31582 0.182056,0.68531 0.18311,1.04744 0,0 0,17.58021 0,17.58021 0,0.26317 0.01265,0.59162 -0.07366,0.84005 -0.288342,0.82848 -1.298586,0.86111 -2.031013,0.96323 -1.611129,0.22423 -2.806587,0.2158 -4.41982,0.19686 -1.218609,-0.0147 -2.910768,-0.38846 -4.104119,-0.68742 -6.261412,-1.56643 -11.529416,-6.2436 -14.05608,-12.15561 -0.833451,-1.94961 -1.620599,-5.04035 -1.623758,-7.1584 0,0 0,-2.31596 0,-2.31596 10e-4,-0.81163 0.137858,-1.62116 0.272556,-2.42122 0.659816,-3.92869 2.504565,-7.68896 5.181713,-10.63128 0.815562,-0.89479 2.494041,-2.61283 3.595839,-2.99495 1.499582,-0.22844 1.843696,1.33377 1.121792,2.13278 z m 15.610384,5.84147 c 1.42802,0.70532 0.937634,3.05706 -0.841872,2.90337 -1.59324,-0.13686 -1.926831,-2.3486 -0.315702,-2.98126 0.382,-0.0695 0.796622,-0.10003 1.157574,0.0779 z"
       id="Selection"
       inkscape:connector-curvature="0"
       style="fill:#00afaa;fill-opacity:1;stroke:none;stroke-width:0.26458332" />
  </g>
</svg>
